<?xml version="1.0" standalone="no"?>
<!DOCTYPE svg PUBLIC "-//W3C//DTD SVG 20010904//EN"
 "http://www.w3.org/TR/2001/REC-SVG-20010904/DTD/svg10.dtd">
<svg version="1.0" xmlns="http://www.w3.org/2000/svg"
 width="256.000000pt" height="256.000000pt" viewBox="0 0 256.000000 256.000000"
 preserveAspectRatio="xMidYMid meet">

<g transform="translate(0.000000,256.000000) scale(0.100000,-0.100000)"
fill="#000000" stroke="none">
<path d="M1730 1723 c0 -20 1 -34 3 -32 1 2 15 19 31 37 l30 32 -32 0 c-30 0
-32 -2 -32 -37z"/>
<path d="M2015 1640 c-18 -20 -17 -20 13 -20 34 0 35 1 26 24 -8 21 -17 20
-39 -4z"/>
<path d="M1122 1628 c-7 -7 -12 -18 -12 -25 0 -15 30 -32 48 -26 17 7 15 50
-4 57 -20 8 -18 8 -32 -6z"/>
<path d="M1660 1554 l0 -46 34 29 c18 15 38 36 45 46 10 15 7 17 -34 17 l-45
0 0 -46z"/>
<path d="M1735 1543 l-17 -28 23 22 c12 12 20 25 17 28 -3 3 -13 -7 -23 -22z"/>
<path d="M1773 1548 c-23 -26 -39 -68 -26 -68 5 0 18 7 29 15 16 12 17 16 4
24 -12 8 -12 13 4 30 11 12 17 21 14 21 -2 0 -14 -10 -25 -22z"/>
<path d="M1820 1558 c0 -4 4 -8 9 -8 6 0 12 4 15 8 3 5 -1 9 -9 9 -8 0 -15 -4
-15 -9z"/>
<path d="M1426 1501 l-59 -60 7 -97 c4 -54 9 -100 11 -102 2 -3 11 -2 19 1 10
4 14 20 13 56 -1 28 0 51 3 51 3 0 25 -25 49 -56 23 -30 48 -53 54 -51 8 2 13
39 15 100 3 92 2 97 -18 97 -18 0 -20 -6 -20 -55 0 -33 -4 -55 -11 -55 -8 0
-9 34 -4 115 4 63 6 115 3 115 -2 0 -30 -27 -62 -59z"/>
<path d="M854 1498 l-29 -33 33 29 c17 17 32 31 32 33 0 8 -8 1 -36 -29z"/>
<path d="M1768 1473 c-2 -5 -18 -21 -36 -38 l-32 -29 -16 22 c-30 43 -49 28
-89 -70 -20 -51 -39 -99 -43 -107 -4 -11 1 -13 21 -9 24 5 27 2 27 -23 0 -38
17 -37 67 6 30 26 42 31 46 21 7 -17 -23 -46 -46 -46 -9 0 -31 -28 -54 -70
-21 -38 -40 -70 -43 -70 -3 0 -22 32 -43 71 -27 50 -43 69 -55 67 -14 -3 -17
-19 -20 -106 -3 -96 -2 -102 17 -102 17 0 20 8 23 58 l3 57 30 -52 c39 -68 57
-68 92 0 l28 52 3 -57 c3 -49 6 -58 22 -58 17 0 20 9 22 92 2 62 7 93 16 96 8
2 12 -9 12 -40 0 -23 3 -67 6 -95 l7 -53 78 0 c72 0 79 2 79 20 0 18 -7 20
-60 20 -53 0 -60 2 -60 19 0 17 8 20 52 23 41 2 54 7 56 21 3 12 -3 17 -21 17
-44 0 -87 12 -87 25 0 8 23 15 61 19 49 6 60 10 57 24 -3 14 -18 18 -78 23
-41 3 -69 6 -62 7 6 1 12 9 12 17 0 9 9 15 25 15 25 0 25 1 25 84 0 47 5 88
10 91 6 4 10 -27 10 -84 0 -72 3 -91 14 -91 8 0 16 -6 19 -12 3 -9 14 -4 34
15 19 18 36 25 46 21 10 -3 17 -1 17 6 0 6 4 9 9 6 4 -3 8 7 8 22 0 15 6 41
13 58 12 28 11 35 -3 58 -16 23 -24 26 -77 26 -60 0 -70 6 -48 28 9 9 1 12
-39 12 -28 0 -53 -3 -55 -7z m182 -78 c20 -24 4 -45 -35 -45 -32 0 -35 2 -35
30 0 26 3 30 29 30 16 0 34 -7 41 -15z m-181 -128 c1 -5 -3 -5 -9 -2 -5 3 -10
16 -9 28 0 21 1 21 9 2 5 -11 9 -24 9 -28z m125 28 c-4 -8 -8 -15 -10 -15 -2
0 -4 7 -4 15 0 8 4 15 10 15 5 0 7 -7 4 -15z"/>
<path d="M980 1460 c0 -5 -14 -10 -31 -10 -29 0 -31 -2 -26 -29 4 -21 0 -37
-13 -54 -11 -14 -20 -31 -20 -39 1 -9 5 -7 14 5 19 25 28 7 24 -46 l-3 -42 44
-3 c27 -2 49 2 60 11 9 8 23 17 31 20 8 3 -9 6 -37 6 -51 1 -53 2 -53 29 0 15
5 33 11 39 13 13 19 123 7 123 -4 0 -8 -4 -8 -10z"/>
<path d="M768 1442 c-16 -3 -18 -16 -18 -102 l0 -98 75 -1 c74 -1 75 0 75 25
0 25 -2 26 -52 22 l-53 -3 -5 80 c-4 70 -7 80 -22 77z"/>
<path d="M1220 1439 c-62 -24 -81 -113 -36 -166 20 -24 32 -28 75 -28 34 0 51
-4 51 -12 0 -7 5 -13 10 -13 6 0 10 -5 10 -11 0 -6 -8 -8 -18 -5 -14 5 -21 -2
-31 -31 -7 -21 -28 -71 -47 -110 l-33 -73 24 0 c14 0 29 9 35 20 8 16 21 20
60 20 39 0 52 -4 60 -20 9 -16 50 -30 50 -16 0 2 -19 45 -41 97 -41 92 -42 94
-36 182 3 49 2 99 -3 112 -17 43 -84 71 -130 54z m75 -54 c28 -27 30 -37 14
-68 -15 -28 -28 -37 -56 -37 -23 0 -63 43 -63 67 0 19 45 63 65 63 9 0 27 -11
40 -25z m38 -262 c2 -10 8 -26 12 -35 6 -15 2 -18 -24 -18 -34 0 -37 6 -19 45
13 29 24 32 31 8z"/>
<path d="M400 1340 c0 -93 1 -100 20 -100 18 0 20 7 20 58 l0 57 31 -52 c39
-68 58 -68 89 -3 13 28 26 50 30 50 3 0 6 -24 6 -52 0 -46 2 -53 19 -53 18 0
20 8 23 98 3 96 2 97 -21 97 -18 0 -30 -13 -58 -65 -18 -36 -37 -65 -41 -65
-3 0 -23 29 -43 65 -25 45 -42 65 -55 65 -19 0 -20 -8 -20 -100z"/>
<path d="M675 1342 c0 -93 1 -97 23 -100 22 -3 23 -2 21 97 -2 95 -4 101 -23
101 -20 0 -21 -6 -21 -98z"/>
<path d="M1092 1339 c-4 -98 -3 -101 18 -97 20 3 22 9 23 101 2 91 1 97 -18
97 -18 0 -20 -8 -23 -101z"/>
<path d="M2022 1343 l3 -98 75 0 c62 0 75 3 78 17 3 14 -6 17 -55 20 -50 3
-58 6 -58 23 0 17 8 20 53 23 36 2 52 7 52 17 0 10 -16 15 -52 17 -45 3 -53 6
-53 23 0 17 8 20 58 23 42 2 57 7 57 17 0 12 -17 15 -80 15 l-81 0 3 -97z"/>
<path d="M1564 1385 c11 -8 22 -12 25 -9 6 6 -19 24 -34 24 -5 -1 -1 -7 9 -15z"/>
<path d="M825 1200 c-11 -4 -38 -27 -60 -49 -32 -34 -38 -45 -29 -59 6 -9 26
-18 44 -20 29 -3 41 4 96 59 35 35 64 67 64 71 0 11 -89 9 -115 -2z"/>
<path d="M1024 1166 c-71 -71 -26 -175 76 -176 66 0 90 20 90 76 l0 44 -45 0
c-38 0 -45 -3 -45 -20 0 -15 7 -20 25 -20 34 0 33 -28 -2 -41 -22 -8 -32 -6
-52 9 -54 40 -25 131 37 119 60 -12 66 -12 70 4 4 20 -38 39 -84 39 -28 0 -44
-8 -70 -34z"/>
<path d="M865 1060 l-69 -70 54 -1 c82 -2 93 1 112 24 19 24 24 42 8 32 -6 -3
-13 0 -16 8 -3 8 -13 14 -22 12 -9 -1 -12 0 -6 2 12 4 25 63 14 63 -3 0 -37
-31 -75 -70z"/>
<path d="M420 1050 c0 -5 5 -10 10 -10 6 0 10 5 10 10 0 6 -4 10 -10 10 -5 0
-10 -4 -10 -10z"/>
<path d="M610 939 c9 -16 14 -18 26 -8 21 17 17 29 -11 29 -23 0 -24 -2 -15
-21z"/>
<path d="M1300 875 c-11 -13 -8 -15 13 -15 19 0 25 4 21 15 -4 8 -10 15 -14
15 -4 0 -13 -7 -20 -15z"/>
<path d="M717 822 l-28 -29 37 -6 c21 -4 40 -4 43 -2 2 3 -2 19 -10 36 l-14
30 -28 -29z"/>
<path d="M1685 781 c-7 -12 12 -24 25 -16 11 7 4 25 -10 25 -5 0 -11 -4 -15
-9z"/>
</g>
</svg>
